<svg id="Violet" xmlns="http://www.w3.org/2000/svg" viewBox="0 0 600 200"><title>Logo Scaleway Elements</title><path d="M185.41,143.27v9.32h12.91a2,2,0,1,1,0,3.9h-15a2.18,2.18,0,0,1-2.11-2.15V127.76a2.17,2.17,0,0,1,2.11-2.15h14.43a2,2,0,1,1,0,3.9H185.41v9.86h10.67a2,2,0,1,1,0,3.9Z" style="fill:#FFFFFF"/><path d="M209.62,156.49a2.18,2.18,0,0,1-2.11-2.15V127.49a2.09,2.09,0,1,1,4.17,0v25.1h10.85a2,2,0,1,1,0,3.9Z" style="fill:#FFFFFF"/><path d="M234.77,143.27v9.32h12.91a2,2,0,1,1,0,3.9h-15a2.17,2.17,0,0,1-2.1-2.15V127.76a2.16,2.16,0,0,1,2.1-2.15h14.44a2,2,0,1,1,0,3.9H234.77v9.86h10.66a2,2,0,1,1,0,3.9Z" style="fill:#FFFFFF"/><path d="M276.27,152.19a2.34,2.34,0,0,1-4.57,0l-9.28-18.92-2.6,21.56a2,2,0,0,1-2.06,1.88,1.94,1.94,0,0,1-2-1.92v-.27l3.32-27.12a2.17,2.17,0,0,1,2-2h.45a2.09,2.09,0,0,1,1.92,1.08l10.49,21.83,10.49-21.83a2.07,2.07,0,0,1,2-1.08h.45a2.16,2.16,0,0,1,2,2l3.32,27.12v.27a1.94,1.94,0,0,1-2,1.92,2,2,0,0,1-2.06-1.88l-2.65-21.56Z" style="fill:#FFFFFF"/><path d="M304.65,143.27v9.32h12.91a2,2,0,1,1,0,3.9h-15a2.18,2.18,0,0,1-2.11-2.15V127.76a2.17,2.17,0,0,1,2.11-2.15H317a2,2,0,1,1,0,3.9H304.65v9.86h10.67a2,2,0,1,1,0,3.9Z" style="fill:#FFFFFF"/><path d="M330.92,133.23v21.38a2.09,2.09,0,1,1-4.17,0V127.44a2.08,2.08,0,0,1,2.06-2.06h.58a2.17,2.17,0,0,1,2.11,1.21l13.31,22.1v-21.2a2.09,2.09,0,1,1,4.17,0v27.25a2,2,0,0,1-2,2h-.58a2.1,2.1,0,0,1-2-1.16Z" style="fill:#FFFFFF"/><path d="M357.09,129.51a2,2,0,1,1,0-3.9h19.64a2,2,0,1,1,0,3.9H369v25.1a2.09,2.09,0,1,1-4.17,0v-25.1Z" style="fill:#FFFFFF"/><path d="M393.72,153c4.08,0,6.23-2.47,6.23-5,0-3-2.6-4.39-5.25-5.06l-4-1c-6.54-1.61-7.53-5.42-7.53-8.07,0-5.2,4.75-8.69,10-8.69,4.93,0,8.47,2.55,9.59,6.54a3.88,3.88,0,0,1,.14,1c0,1-.5,1.89-2.07,1.89a1.85,1.85,0,0,1-1.92-1.44c-.77-2.87-3-4-5.79-4-3,0-5.78,1.84-5.78,4.66,0,1.34.49,3.36,4.39,4.3l4,1c5.29,1.3,8.34,4.26,8.34,8.47,0,5-3.77,9.28-10.4,9.28-5.43,0-9.06-2.91-10.31-6.86a3.35,3.35,0,0,1-.14-.9,1.92,1.92,0,0,1,2.06-1.92,2,2,0,0,1,1.89,1.48C387.84,151,390.35,153,393.72,153Z" style="fill:#FFFFFF"/><path d="M91.33,133.65h20.51a9.29,9.29,0,0,0,8.17-8.78V95.29a7.11,7.11,0,0,0-14.22,0v18.8a5.34,5.34,0,0,1-5.35,5.34H91.15a7.12,7.12,0,0,0-7.1,7.21A7.21,7.21,0,0,0,91.33,133.65Z" style="fill:#FFFFFF"/><path d="M100.57,66.12H80.06a9.29,9.29,0,0,0-8.17,8.78v29.58a7.11,7.11,0,0,0,14.22,0V85.69a5.35,5.35,0,0,1,5.35-5.35h9.29a7.12,7.12,0,0,0,7.11-7.21A7.23,7.23,0,0,0,100.57,66.12Z" style="fill:#FFFFFF"/><path d="M104,51.81A30.25,30.25,0,0,1,134.26,82v58.12h0a9.29,9.29,0,0,1-8,7.66H87.62a30.24,30.24,0,0,1-30.23-30.24V61.16a9.34,9.34,0,0,1,9.35-9.35H104m0-14.23H66.74A23.58,23.58,0,0,0,43.16,61.16v56.41A44.46,44.46,0,0,0,87.62,162H127a23.56,23.56,0,0,0,21.5-20.95h0V82A44.45,44.45,0,0,0,104,37.58Z" style="fill:#FFFFFF"/><path d="M203,114.24a29.85,29.85,0,0,1-14.06-3.6A32.83,32.83,0,0,1,177.69,101a2.43,2.43,0,0,1,.35-3.27l5.4-4.78a2.39,2.39,0,0,1,1.61-.61,2.06,2.06,0,0,1,.35,0,2.42,2.42,0,0,1,1.71,1.11,22,22,0,0,0,7.34,7.22,18.12,18.12,0,0,0,9.45,2.62c3.58,0,6.26-.74,8-2.21a7,7,0,0,0,2.42-5.71,7.28,7.28,0,0,0-2.58-6.1c-2.06-1.64-5.5-3.14-10.22-4.46-13.88-3.41-20.92-10-20.92-19.7,0-6,2-10.7,6-14s9.18-4.81,15.81-4.81A30.3,30.3,0,0,1,215.34,49a29.44,29.44,0,0,1,10.28,8.29,2.45,2.45,0,0,1-.31,3.39l-5.23,4.43a2.45,2.45,0,0,1-1.57.58l-.29,0a2.43,2.43,0,0,1-1.68-1,19.42,19.42,0,0,0-6.2-5.72,16.43,16.43,0,0,0-7.94-1.78,12.65,12.65,0,0,0-7.67,2.14,6,6,0,0,0-2.55,5.16,6.59,6.59,0,0,0,2.39,5.42c1.88,1.55,5.27,2.92,10.08,4.06,6.52,1.76,11.65,4.22,15.31,7.33,3.94,3.37,5.94,8.1,5.94,14.07a17.55,17.55,0,0,1-2.89,9.94,18.74,18.74,0,0,1-8.15,6.67A28.91,28.91,0,0,1,203,114.24Z" style="fill:#FFFFFF"/><path d="M254.79,114.49a22.84,22.84,0,0,1-12-3.18,22.22,22.22,0,0,1-8.24-8.83,28.45,28.45,0,0,1-.05-25.09,21.92,21.92,0,0,1,8.21-8.85,22.62,22.62,0,0,1,11.88-3.18,19.76,19.76,0,0,1,10,2.5,26.3,26.3,0,0,1,7.57,6.76,2.45,2.45,0,0,1-.43,3.42l-4.42,3.45a2.42,2.42,0,0,1-1.5.52,2.22,2.22,0,0,1-.37,0,2.45,2.45,0,0,1-1.64-1c-2.43-3.52-5.45-5.23-9.23-5.23a11.11,11.11,0,0,0-6.17,1.74,12,12,0,0,0-4.3,4.94,18.34,18.34,0,0,0,0,15,11.85,11.85,0,0,0,4.3,5,11.11,11.11,0,0,0,6.17,1.74,12.48,12.48,0,0,0,5.84-1.18,13.24,13.24,0,0,0,4.18-3.64,2.43,2.43,0,0,1,1.93-.94,2.39,2.39,0,0,1,1.39.44l4.69,3.28a2.43,2.43,0,0,1,.5,3.53,24.15,24.15,0,0,1-8,6.44A22.78,22.78,0,0,1,254.79,114.49Z" style="fill:#FFFFFF"/><path d="M299.73,114.49a22.67,22.67,0,0,1-11.88-3.18,22.15,22.15,0,0,1-8.24-8.83,28.56,28.56,0,0,1-.05-25.14,22.09,22.09,0,0,1,8.15-8.79,22.37,22.37,0,0,1,11.84-3.19A19.9,19.9,0,0,1,309,67.64a19.36,19.36,0,0,1,2.75,1.75v-.17a2.44,2.44,0,0,1,2.44-2.44h6a2.44,2.44,0,0,1,2.44,2.44v41.42a2.44,2.44,0,0,1-2.44,2.44h-6a2.44,2.44,0,0,1-2.44-2.44v-.15a20.56,20.56,0,0,1-2.7,1.72A19.47,19.47,0,0,1,299.73,114.49Zm-.18-38.76a10.81,10.81,0,0,0-6.1,1.73,12.12,12.12,0,0,0-4.28,4.92,16.77,16.77,0,0,0-1.6,7.46,17.19,17.19,0,0,0,1.61,7.6,11.86,11.86,0,0,0,4.27,5,10.81,10.81,0,0,0,6.1,1.74,11.27,11.27,0,0,0,6.26-1.74,11.85,11.85,0,0,0,4.3-5,18.34,18.34,0,0,0,0-15,12,12,0,0,0-4.3-4.94A11.27,11.27,0,0,0,299.55,75.73Z" style="fill:#FFFFFF"/><rect x="330.43" y="46.26" width="10.9" height="66.6" rx="2.44" style="fill:#FFFFFF"/><path d="M438,113.08a2.45,2.45,0,0,1-2.33-1.71l-7.85-24.72-8.49,24.78a2.46,2.46,0,0,1-2.31,1.65h-6a2.44,2.44,0,0,1-2.31-1.68L395,70a2.43,2.43,0,0,1,1.07-2.86,2.51,2.51,0,0,1,1.31-.34h6.31A2.44,2.44,0,0,1,406,68.47l8.32,25.78,8.46-25.79a2.43,2.43,0,0,1,2.31-1.68H431a2.42,2.42,0,0,1,2.32,1.7L441.43,94l8.2-25.5A2.43,2.43,0,0,1,452,66.78h5.71a2.54,2.54,0,0,1,.95.17A2.44,2.44,0,0,1,460,70l-13.45,41.42a2.44,2.44,0,0,1-2.32,1.69Z" style="fill:#FFFFFF"/><path d="M484.56,114.49a22.68,22.68,0,0,1-11.89-3.18,22.22,22.22,0,0,1-8.24-8.83,28.65,28.65,0,0,1-.05-25.14,22.09,22.09,0,0,1,8.15-8.79,22.47,22.47,0,0,1,11.85-3.19,19.89,19.89,0,0,1,9.41,2.28,19.68,19.68,0,0,1,2.75,1.75v-.17A2.44,2.44,0,0,1,499,66.78h6a2.44,2.44,0,0,1,2.44,2.44v41.42a2.45,2.45,0,0,1-2.44,2.44h-6a2.45,2.45,0,0,1-2.44-2.44v-.15a20.45,20.45,0,0,1-2.69,1.72A19.5,19.5,0,0,1,484.56,114.49Zm-.18-38.76a10.84,10.84,0,0,0-6.11,1.73A12.09,12.09,0,0,0,474,82.38a16.67,16.67,0,0,0-1.61,7.46,17.19,17.19,0,0,0,1.61,7.6,12,12,0,0,0,4.27,5,10.92,10.92,0,0,0,6.11,1.73,11.24,11.24,0,0,0,6.25-1.74,11.78,11.78,0,0,0,4.3-5,18.34,18.34,0,0,0,0-15,12,12,0,0,0-4.3-4.94A11.24,11.24,0,0,0,484.38,75.73Z" style="fill:#FFFFFF"/><path d="M385.87,98.45a2.68,2.68,0,0,0-3.6.47,15.72,15.72,0,0,1-3.91,3.53,15.47,15.47,0,0,1-7.6,1.68,10.41,10.41,0,0,1-8.49-3.65A14.79,14.79,0,0,1,359,93.6h31.33a2.42,2.42,0,0,0,2.42-2.2c.07-.67.1-1.62.1-2.8A24.31,24.31,0,0,0,390,76.86a21.87,21.87,0,0,0-8-8.4,21.48,21.48,0,0,0-11.35-3.1,22.38,22.38,0,0,0-11.85,3.19,22,22,0,0,0-8.15,8.84,27,27,0,0,0-2.88,12.54,26.61,26.61,0,0,0,2.93,12.55,22.22,22.22,0,0,0,8.24,8.83,22.84,22.84,0,0,0,12,3.18,25.19,25.19,0,0,0,12.5-2.91,24.44,24.44,0,0,0,7.34-6.27,2.7,2.7,0,0,0-.59-3.86ZM363,78.69a10.29,10.29,0,0,1,7.7-3c3.34,0,5.86.84,7.71,2.57a11.43,11.43,0,0,1,3,5.47H359.75A13.35,13.35,0,0,1,363,78.69Z" style="fill:#FFFFFF"/><path d="M556.4,67.83a2.42,2.42,0,0,0-2-1h-5.66a2.44,2.44,0,0,0-2.27,1.56l-11.7,30.24L523.64,68.31a2.42,2.42,0,0,0-2.26-1.54h-6.29a2.43,2.43,0,0,0-2,1.07,2.47,2.47,0,0,0-.24,2.28l16.32,43h0a6.37,6.37,0,0,1-2.37,4c-1.53,1-4.42,1.16-6,1.26a2.65,2.65,0,0,0-2.49,2.64v4.14a2.64,2.64,0,0,0,2.65,2.64c2.55,0,6.64.25,9.83-1.44,6.57-3.47,7.55-7.78,9.4-12.67l16.49-43.55A2.44,2.44,0,0,0,556.4,67.83Z" style="fill:#FFFFFF"/></svg>